{
    "asset" : {
        "generator" : "Khronos glTF Blender I/O v1.8.19",
        "version" : "2.0"
    },
    "scene" : 0,
    "scenes" : [
        {
            "name" : "Scene",
            "nodes" : [
                0
            ]
        }
    ],
    "nodes" : [
        {
            "mesh" : 0,
            "name" : "Object_5",
            "translation" : [
                -0.0258936807513237,
                0.0034179091453552246,
                -0.14687484502792358
            ]
        }
    ],
    "materials" : [
        {
            "doubleSided" : true,
            "name" : "FRAME_7",
            "pbrMetallicRoughness" : {
                "baseColorFactor" : [
                    0.07818735390901566,
                    0.07036004960536957,
                    0.07227184623479843,
                    1
                ],
                "metallicFactor" : 0,
                "roughnessFactor" : 0.5
            }
        },
        {
            "doubleSided" : true,
            "name" : "PHOTO_5",
            "pbrMetallicRoughness" : {
                "baseColorTexture" : {
                    "index" : 0
                },
                "metallicFactor" : 0,
                "roughnessFactor" : 0.10000000149011612
            }
        }
    ],
    "meshes" : [
        {
            "name" : "Object_5",
            "primitives" : [
                {
                    "attributes" : {
                        "POSITION" : 0,
                        "NORMAL" : 1,
                        "TEXCOORD_0" : 2,
                        "TEXCOORD_1" : 3
                    },
                    "indices" : 4,
                    "material" : 0
                },
                {
                    "attributes" : {
                        "POSITION" : 5,
                        "NORMAL" : 6,
                        "TEXCOORD_0" : 7,
                        "TEXCOORD_1" : 8
                    },
                    "indices" : 9,
                    "material" : 1
                }
            ]
        }
    ],
    "textures" : [
        {
            "sampler" : 0,
            "source" : 0
        }
    ],
    "images" : [
        {
            "mimeType" : "image/jpeg",
            "name" : "Image_6",
            "uri" : "textures/Image_6.jpg"
        }
    ],
    "accessors" : [
        {
            "bufferView" : 0,
            "componentType" : 5126,
            "count" : 12422,
            "max" : [
                0.4753935635089874,
                0.5938665270805359,
                0.037545204162597656
            ],
            "min" : [
                -0.47516581416130066,
                -0.593788206577301,
                -0.019454816356301308
            ],
            "type" : "VEC3"
        },
        {
            "bufferView" : 1,
            "componentType" : 5126,
            "count" : 12422,
            "type" : "VEC3"
        },
        {
            "bufferView" : 2,
            "componentType" : 5126,
            "count" : 12422,
            "type" : "VEC2"
        },
        {
            "bufferView" : 3,
            "componentType" : 5126,
            "count" : 12422,
            "type" : "VEC2"
        },
        {
            "bufferView" : 4,
            "componentType" : 5123,
            "count" : 12426,
            "type" : "SCALAR"
        },
        {
            "bufferView" : 5,
            "componentType" : 5126,
            "count" : 6,
            "max" : [
                0.3554123044013977,
                0.4738851487636566,
                -0.016454799100756645
            ],
            "min" : [
                -0.3551845848560333,
                -0.4738064706325531,
                -0.016454799100756645
            ],
            "type" : "VEC3"
        },
        {
            "bufferView" : 6,
            "componentType" : 5126,
            "count" : 6,
            "type" : "VEC3"
        },
        {
            "bufferView" : 7,
            "componentType" : 5126,
            "count" : 6,
            "type" : "VEC2"
        },
        {
            "bufferView" : 8,
            "componentType" : 5126,
            "count" : 6,
            "type" : "VEC2"
        },
        {
            "bufferView" : 9,
            "componentType" : 5123,
            "count" : 6,
            "type" : "SCALAR"
        }
    ],
    "bufferViews" : [
        {
            "buffer" : 0,
            "byteLength" : 149064,
            "byteOffset" : 0
        },
        {
            "buffer" : 0,
            "byteLength" : 149064,
            "byteOffset" : 149064
        },
        {
            "buffer" : 0,
            "byteLength" : 99376,
            "byteOffset" : 298128
        },
        {
            "buffer" : 0,
            "byteLength" : 99376,
            "byteOffset" : 397504
        },
        {
            "buffer" : 0,
            "byteLength" : 24852,
            "byteOffset" : 496880
        },
        {
            "buffer" : 0,
            "byteLength" : 72,
            "byteOffset" : 521732
        },
        {
            "buffer" : 0,
            "byteLength" : 72,
            "byteOffset" : 521804
        },
        {
            "buffer" : 0,
            "byteLength" : 48,
            "byteOffset" : 521876
        },
        {
            "buffer" : 0,
            "byteLength" : 48,
            "byteOffset" : 521924
        },
        {
            "buffer" : 0,
            "byteLength" : 12,
            "byteOffset" : 521972
        }
    ],
    "samplers" : [
        {
            "magFilter" : 9729,
            "minFilter" : 9987
        }
    ],
    "buffers" : [
        {
            "byteLength" : 521984,
            "uri" : "scene.bin"
        }
    ]
}
